<svg fill="#B7472A" role="img" viewBox="0 0 24 24" xmlns="http://www.w3.org/2000/svg"><title>Microsoft PowerPoint</title><path d="M4.828 0C3.263 0 2.97.29 2.97 1.81v20.38c0 1.52.293 1.81 1.858 1.81h14.344c1.565 0 1.858-.29 1.858-1.81V6.818L15.152 0H4.828zm8.14 1.394L19.636 8.06h-4.856c-1.076 0-1.812-.354-1.812-1.812V1.394zM8.14 9.882h3.07c2.47 0 3.61 1.3 3.61 3.063 0 2.098-1.586 3.208-3.84 3.208H9.74v2.69H8.14V9.883zm1.6 1.3v3.68h1.24c1.386 0 2.24-.627 2.24-1.876 0-1.164-.728-1.804-2.1-1.804H9.74z"/></svg>
